<?xml version="1.0" encoding="UTF-8" standalone="no"?>
<!DOCTYPE svg PUBLIC "-//W3C//DTD SVG 1.1//EN"
 "http://www.w3.org/Graphics/SVG/1.1/DTD/svg11.dtd">
<!-- Generated by graphviz version 2.38.0 (20140413.2041)
 -->
<!-- Title: Aadrite_sugupuu Pages: 1 -->
<svg width="234pt" height="188pt"
 viewBox="0.00 0.00 233.69 188.00" xmlns="http://www.w3.org/2000/svg" xmlns:xlink="http://www.w3.org/1999/xlink">
<g id="graph0" class="graph" transform="scale(1 1) rotate(0) translate(4 184)">
<title>Aadrite_sugupuu</title>
<polygon fill="white" stroke="none" points="-4,4 -4,-184 229.694,-184 229.694,4 -4,4"/>
<!-- Karupoeg Puhh -->
<g id="node1" class="node"><title>Karupoeg Puhh</title>
<ellipse fill="none" stroke="black" cx="111.197" cy="-90" rx="67.6881" ry="18"/>
<text text-anchor="middle" x="111.197" y="-86.3" font-family="Times,serif" font-size="14.00">Karupoeg Puhh</text>
</g>
<!-- J2nes -->
<g id="node2" class="node"><title>J2nes</title>
<ellipse fill="none" stroke="black" cx="31.1972" cy="-18" rx="31.3957" ry="18"/>
<text text-anchor="middle" x="31.1972" y="-14.3" font-family="Times,serif" font-size="14.00">J2nes</text>
</g>
<!-- Karupoeg Puhh&#45;&gt;J2nes -->
<g id="edge1" class="edge"><title>Karupoeg Puhh&#45;&gt;J2nes</title>
<path fill="none" stroke="black" d="M92.2383,-72.411C81.2011,-62.7534 67.1758,-50.4813 55.3532,-40.1365"/>
<polygon fill="black" stroke="black" points="57.4146,-37.2895 47.584,-33.3384 52.805,-42.5575 57.4146,-37.2895"/>
</g>
<!-- Eesel -->
<g id="node3" class="node"><title>Eesel</title>
<ellipse fill="none" stroke="black" cx="111.197" cy="-18" rx="31.3957" ry="18"/>
<text text-anchor="middle" x="111.197" y="-14.3" font-family="Times,serif" font-size="14.00">Eesel</text>
</g>
<!-- Karupoeg Puhh&#45;&gt;Eesel -->
<g id="edge2" class="edge"><title>Karupoeg Puhh&#45;&gt;Eesel</title>
<path fill="none" stroke="black" d="M111.197,-71.6966C111.197,-63.9827 111.197,-54.7125 111.197,-46.1124"/>
<polygon fill="black" stroke="black" points="114.697,-46.1043 111.197,-36.1043 107.697,-46.1044 114.697,-46.1043"/>
</g>
<!-- Notsu -->
<g id="node4" class="node"><title>Notsu</title>
<ellipse fill="none" stroke="black" cx="193.197" cy="-18" rx="32.4942" ry="18"/>
<text text-anchor="middle" x="193.197" y="-14.3" font-family="Times,serif" font-size="14.00">Notsu</text>
</g>
<!-- Karupoeg Puhh&#45;&gt;Notsu -->
<g id="edge3" class="edge"><title>Karupoeg Puhh&#45;&gt;Notsu</title>
<path fill="none" stroke="black" d="M130.63,-72.411C141.866,-62.8191 156.124,-50.6481 168.19,-40.3479"/>
<polygon fill="black" stroke="black" points="170.796,-42.7251 176.129,-33.5705 166.251,-37.4011 170.796,-42.7251"/>
</g>
<!-- Batman -->
<g id="node5" class="node"><title>Batman</title>
<ellipse fill="none" stroke="black" cx="111.197" cy="-162" rx="38.1938" ry="18"/>
<text text-anchor="middle" x="111.197" y="-158.3" font-family="Times,serif" font-size="14.00">Batman</text>
</g>
<!-- Batman&#45;&gt;Karupoeg Puhh -->
<g id="edge4" class="edge"><title>Batman&#45;&gt;Karupoeg Puhh</title>
<path fill="none" stroke="black" d="M111.197,-143.697C111.197,-135.983 111.197,-126.712 111.197,-118.112"/>
<polygon fill="black" stroke="black" points="114.697,-118.104 111.197,-108.104 107.697,-118.104 114.697,-118.104"/>
</g>
</g>
</svg>
