<?xml version="1.0" encoding="UTF-8" standalone="yes"?>
<!-- Created with sK1/UniConvertor (http://sk1project.org/) -->
<svg xmlns="http://www.w3.org/2000/svg" xmlns:xlink="http://www.w3.org/1999/xlink"
  width="268.347pt" height="268.347pt" viewBox="0 0 268.347 268.347"
  fill-rule="evenodd">
  <defs> 
	<marker id="ArrowEnd" viewBox="0 0 10 10" refX="0" refY="5" 
		markerUnits="strokeWidth" 
		markerWidth="4" 
		markerHeight="3" 
		orient="auto"> 
		<path d="M 0 0 L 10 5 L 0 10 z" /> 
	</marker>
	<marker id="ArrowStart" viewBox="0 0 10 10" refX="10" refY="5" 
		markerUnits="strokeWidth" 
		markerWidth="4" 
		markerHeight="3" 
		orient="auto"> 
		<path d="M 10 0 L 0 5 L 10 10 z" /> 
	</marker> </defs>
<g>
<g>
<g>
<g>
<path style="stroke:#dc0000; stroke-width:0; stroke-linejoin:round; stroke-linecap:round; fill:#5dff38" d="M 14.1732 14.174L 254.173 14.174L 254.173 254.174L 14.1732 254.174L 14.1732 14.174L 14.1732 14.174z"/>
</g>
<g>
<g>
<path style="stroke:#000000; stroke-width:24; stroke-linejoin:round; stroke-linecap:round; fill:none" d="M 74.1732 134.174L 134.173 14.174L 194.173 134.174"/>
<path style="stroke:#000000; stroke-width:24; stroke-linejoin:round; stroke-linecap:round; fill:none" d="M 14.1732 254.174L 14.1732 14.174L 134.173 254.174L 254.173 14.174L 254.173 254.174"/>
</g>
</g>
<g>
<g>
<path style="stroke:#000000; stroke-width:24; stroke-linejoin:round; stroke-linecap:round; fill:none" d="M 14.1732 74.174L 254.173 74.174"/>
<path style="stroke:#000000; stroke-width:24; stroke-linejoin:round; stroke-linecap:round; fill:none" d="M 14.1732 194.174L 254.173 194.174"/>
<path style="stroke:#000000; stroke-width:24; stroke-linejoin:round; stroke-linecap:round; fill:none" d="M 14.1732 134.174L 254.173 134.174"/>
<path style="stroke:#000000; stroke-width:24; stroke-linejoin:round; stroke-linecap:round; fill:none" d="M 14.1732 254.174L 254.173 254.174"/>
<path style="stroke:#000000; stroke-width:24; stroke-linejoin:round; stroke-linecap:round; fill:none" d="M 14.1732 14.174L 254.173 14.174"/>
</g>
</g>
</g>
</g>
</g>
<g>
</g>
</svg>